<svg width="100%" height="100%" viewBox="0 0 45 44">
    <path d="M32.34375,20.625 L17.4571875,20.625 L23.25375,14.96 C23.8021875,14.42375 23.8021875,13.5575 23.25375,13.0075 C22.7039062,12.47125 21.81375,12.47125 21.2639062,13.0075 L13.30875,20.79 C12.9726563,21.12 12.8671875,21.57375 12.9445312,22 C12.8671875,22.42625 12.9726563,22.88 13.30875,23.21 L21.2639062,30.9925 C21.81375,31.52875 22.7039062,31.52875 23.25375,30.9925 C23.8021875,30.45625 23.8021875,29.57625 23.25375,29.04 L17.4571875,23.375 L32.34375,23.375 C33.12,23.375 33.75,22.75625 33.75,22 C33.75,21.24375 33.12,20.625 32.34375,20.625 L32.34375,20.625 Z M22.5,41.25 C11.626875,41.25 2.8125,32.62875 2.8125,22 C2.8125,11.37125 11.626875,2.75 22.5,2.75 C33.373125,2.75 42.1875,11.37125 42.1875,22 C42.1875,32.62875 33.373125,41.25 22.5,41.25 L22.5,41.25 Z M22.5,0 C10.074375,0 0,9.845 0,22 C0,34.155 10.074375,44 22.5,44 C34.925625,44 45,34.155 45,22 C45,9.845 34.925625,0 22.5,0 L22.5,0 Z"></path>
</svg>