<svg width="100%" height="100%" viewBox="0 0 37 37">
    <circle fill="#C8C8C8" cx="18.5" cy="18.5" r="18.5"></circle>
    <path d="M27.9822651,24.3096304 C26.4267445,23.8091808 24.7542553,23.4352186 22.9940395,23.193243 C23.2336628,21.8317375 23.3611911,20.4050243 23.4018053,18.9445287 L29.9041251,18.9445287 C29.7587265,20.9251147 29.0707234,22.7580012 27.9822651,24.3096304 L27.9822651,24.3096304 Z M21.352417,28.8113191 C21.893397,27.5472323 22.3360909,26.181013 22.6764372,24.7417296 C24.1369207,24.9507085 25.5372954,25.2594631 26.8637524,25.6648508 C25.3983951,27.1756269 23.49603,28.2873005 21.352417,28.8113191 L21.352417,28.8113191 Z M19.3517657,29.119288 C19.0902108,29.1373576 18.8294682,29.1577841 18.5630396,29.1577841 C18.296611,29.1577841 18.0366807,29.1373576 17.7743135,29.119288 C17.0830613,27.7271427 16.5233987,26.1778705 16.1091348,24.5335363 C16.9165434,24.4651861 17.7345117,24.4251187 18.5630396,24.4251187 C19.3915675,24.4251187 20.2095358,24.4651861 21.0177567,24.5335363 C20.6026805,26.1778705 20.043018,27.7271427 19.3517657,29.119288 L19.3517657,29.119288 Z M10.2623268,25.6648508 C11.5887838,25.2594631 12.9891585,24.9507085 14.449642,24.7417296 C14.7899883,26.181013 15.2326822,27.5472323 15.7736622,28.8113191 C13.6300492,28.2873005 11.7284963,27.1756269 10.2623268,25.6648508 L10.2623268,25.6648508 Z M9.14381406,24.3096304 C8.05535578,22.7580012 7.36735267,20.9251147 7.22195414,18.9445287 L13.7242739,18.9445287 C13.7648881,20.4050243 13.8924164,21.8317375 14.1320397,23.193243 C12.3718239,23.4352186 10.6993347,23.8091808 9.14381406,24.3096304 L9.14381406,24.3096304 Z M9.14381406,12.0081571 C10.6993347,12.5086066 12.3718239,12.8833545 14.1320397,13.1245444 C13.8924164,14.48605 13.7648881,15.9127632 13.7242739,17.3732587 L7.22195414,17.3732587 C7.36735267,15.3926728 8.05535578,13.5597863 9.14381406,12.0081571 L9.14381406,12.0081571 Z M15.7736622,7.50646836 C15.2326822,8.77055512 14.7899883,10.1367744 14.449642,11.5760578 C12.9891585,11.3678645 11.5887838,11.0583243 10.2623268,10.6529366 C11.7284963,9.14216049 13.6300492,8.03048692 15.7736622,7.50646836 L15.7736622,7.50646836 Z M17.7743135,7.19849942 C18.0366807,7.18121545 18.296611,7.16000331 18.5630396,7.16000331 C18.8294682,7.16000331 19.0902108,7.18121545 19.3517657,7.19849942 C20.043018,8.5906447 20.6026805,10.1407026 21.0177567,11.7842511 C20.2095358,11.8526013 19.3915675,11.8926687 18.5630396,11.8926687 C17.7345117,11.8926687 16.9165434,11.8526013 16.1091348,11.7842511 C16.5233987,10.1407026 17.0830613,8.5906447 17.7743135,7.19849942 L17.7743135,7.19849942 Z M21.7748038,18.9445287 C21.7309406,20.328032 21.6009754,21.6887519 21.3564784,22.995263 C20.4418486,22.9182707 19.5117853,22.8727039 18.5630396,22.8727039 C17.6142939,22.8727039 16.6842306,22.9182707 15.7704131,22.995263 C15.5251038,21.6887519 15.3951386,20.328032 15.3520877,18.9445287 L21.7748038,18.9445287 L21.7748038,18.9445287 Z M15.3520877,17.3732587 C15.3951386,15.9897554 15.5251038,14.6290355 15.7704131,13.3225245 C16.6842306,13.3995167 17.6142939,13.4450835 18.5630396,13.4450835 C19.5117853,13.4450835 20.4418486,13.3995167 21.3556661,13.3225245 C21.6009754,14.6290355 21.7309406,15.9897554 21.7748038,17.3732587 L15.3520877,17.3732587 L15.3520877,17.3732587 Z M26.8637524,10.6529366 C25.5372954,11.0583243 24.1369207,11.3678645 22.6764372,11.5760578 C22.3360909,10.1367744 21.893397,8.77055512 21.352417,7.50646836 C23.49603,8.03048692 25.3983951,9.14216049 26.8637524,10.6529366 L26.8637524,10.6529366 Z M27.9822651,12.0081571 C29.0707234,13.5597863 29.7587265,15.3926728 29.9041251,17.3732587 L23.4018053,17.3732587 C23.3611911,15.9127632 23.2336628,14.48605 22.9940395,13.1245444 C24.7542553,12.8833545 26.4267445,12.5086066 27.9822651,12.0081571 L27.9822651,12.0081571 Z M18.5630396,5.58873325 C11.3857132,5.58873325 5.56652281,11.216237 5.56652281,18.1588937 C5.56652281,25.1015505 11.3857132,30.7290542 18.5630396,30.7290542 C25.740366,30.7290542 31.5595564,25.1015505 31.5595564,18.1588937 C31.5595564,11.216237 25.740366,5.58873325 18.5630396,5.58873325 L18.5630396,5.58873325 Z M18.4571123,34.6875 C9.51698731,34.6875 2.26961231,27.4378125 2.26961231,18.5 C2.26961231,9.5621875 9.51698731,2.3125 18.4571123,2.3125 C27.3972373,2.3125 34.6446123,9.5621875 34.6446123,18.5 C34.6446123,27.4378125 27.3972373,34.6875 18.4571123,34.6875 L18.4571123,34.6875 Z M18.5,0 C8.283375,0 0,8.27875 0,18.5 C0,28.72125 8.283375,37 18.5,37 C28.716625,37 37,28.72125 37,18.5 C37,8.27875 28.716625,0 18.5,0 L18.5,0 Z" fill="#4A4A4A"></path>
</svg>