<svg width="22px" height="22px" viewBox="88 8 23 20">
    <path d="M97.2545414,24.8289953 C92.9251189,24.8289953 89.4154646,21.3806 89.4154646,17.1200077 C89.4154646,12.8594154 92.9251189,9.40413703 97.2545414,9.40413703 C101.583964,9.40413703 105.094307,12.8594154 105.094307,17.1200077 C105.094307,21.3806 101.583964,24.8289953 97.2545414,24.8289953 L97.2545414,24.8289953 Z M109.800919,28.8211496 L104.116229,23.2252506 C105.604339,21.6077398 106.519093,19.4740021 106.519093,17.1200077 C106.519093,12.0816336 102.371382,8 97.2545414,8 C92.1377009,8 87.9899902,12.0816336 87.9899902,17.1200077 C87.9899902,22.1514987 92.1377009,26.2331324 97.2545414,26.2331324 C99.465369,26.2331324 101.493108,25.4691166 103.08584,24.1957571 L108.793244,29.8123052 C109.072007,30.0876262 109.522845,30.0876262 109.800919,29.8123052 C110.079681,29.5438672 110.079681,29.0964706 109.800919,28.8211496 L109.800919,28.8211496 Z"></path>
</svg>