<svg width="100%" height="100%" viewBox="0 0 187 187" >
  <path d="M789.264125,559.250719 C778.073344,555.52825 766.041063,552.746625 753.377656,550.94675 C755.101562,540.819531 756.019031,530.207281 756.311219,519.34375 L803.090438,519.34375 C802.044406,534.075844 797.09475,547.709313 789.264125,559.250719 L789.264125,559.250719 Z M741.567437,592.735406 C745.459375,583.332812 748.644219,573.170531 751.09275,562.464781 C761.599812,564.019219 771.674438,566.315812 781.217281,569.331187 C770.675156,580.568719 756.989094,588.837625 741.567437,592.735406 L741.567437,592.735406 Z M727.174281,595.026156 C725.292594,595.160562 723.41675,595.3125 721.5,595.3125 C719.58325,595.3125 717.71325,595.160562 715.825719,595.026156 C710.852688,584.671031 706.826344,573.147156 703.846031,560.916188 C709.654719,560.407781 715.539375,560.10975 721.5,560.10975 C727.460625,560.10975 733.345281,560.407781 739.159812,560.916188 C736.173656,573.147156 732.147312,584.671031 727.174281,595.026156 L727.174281,595.026156 Z M661.782719,569.331187 C671.325563,566.315812 681.400188,564.019219 691.90725,562.464781 C694.355781,573.170531 697.540625,583.332812 701.432563,592.735406 C686.010906,588.837625 672.330688,580.568719 661.782719,569.331187 L661.782719,569.331187 Z M653.735875,559.250719 C645.90525,547.709313 640.955594,534.075844 639.909563,519.34375 L686.688781,519.34375 C686.980969,530.207281 687.898438,540.819531 689.622344,550.94675 C676.958938,552.746625 664.926656,555.52825 653.735875,559.250719 L653.735875,559.250719 Z M653.735875,467.749281 C664.926656,471.47175 676.958938,474.259219 689.622344,476.05325 C687.898438,486.180469 686.980969,496.792719 686.688781,507.65625 L639.909563,507.65625 C640.955594,492.924156 645.90525,479.290687 653.735875,467.749281 L653.735875,467.749281 Z M701.432563,434.264594 C697.540625,443.667187 694.355781,453.829469 691.90725,464.535219 C681.400188,462.986625 671.325563,460.684187 661.782719,457.668813 C672.330688,446.431281 686.010906,438.162375 701.432563,434.264594 L701.432563,434.264594 Z M715.825719,431.973844 C717.71325,431.845281 719.58325,431.6875 721.5,431.6875 C723.41675,431.6875 725.292594,431.845281 727.174281,431.973844 C732.147312,442.328969 736.173656,453.858687 739.159812,466.083812 C733.345281,466.592219 727.460625,466.89025 721.5,466.89025 C715.539375,466.89025 709.654719,466.592219 703.846031,466.083812 C706.826344,453.858687 710.852688,442.328969 715.825719,431.973844 L715.825719,431.973844 Z M744.606188,519.34375 C744.290625,529.634594 743.355625,539.755969 741.596656,549.474125 C735.016594,548.901437 728.3255,548.5625 721.5,548.5625 C714.6745,548.5625 707.983406,548.901437 701.409188,549.474125 C699.644375,539.755969 698.709375,529.634594 698.399656,519.34375 L744.606188,519.34375 L744.606188,519.34375 Z M698.399656,507.65625 C698.709375,497.365406 699.644375,487.244031 701.409188,477.525875 C707.983406,478.098563 714.6745,478.4375 721.5,478.4375 C728.3255,478.4375 735.016594,478.098563 741.590813,477.525875 C743.355625,487.244031 744.290625,497.365406 744.606188,507.65625 L698.399656,507.65625 L698.399656,507.65625 Z M781.217281,457.668813 C771.674438,460.684187 761.599812,462.986625 751.09275,464.535219 C748.644219,453.829469 745.459375,443.667187 741.567437,434.264594 C756.989094,438.162375 770.675156,446.431281 781.217281,457.668813 L781.217281,457.668813 Z M789.264125,467.749281 C797.09475,479.290687 802.044406,492.924156 803.090438,507.65625 L756.311219,507.65625 C756.019031,496.792719 755.101562,486.180469 753.377656,476.05325 C766.041063,474.259219 778.073344,471.47175 789.264125,467.749281 L789.264125,467.749281 Z M721.5,420 C669.864625,420 628,461.858781 628,513.5 C628,565.141219 669.864625,607 721.5,607 C773.135375,607 815,565.141219 815,513.5 C815,461.858781 773.135375,420 721.5,420 L721.5,420 Z"></path>
</svg>