<svg width="23px" height="23px" viewBox="0 0 23 23">
  <path d="M0.406515172,0.000549815738 C0.167364453,0.0461815242 -0.00421147889,0.257351902 7.86900801e-05,0.500779332 L7.86900801e-05,2.00146788 C0.00108574804,2.12991437 0.051460339,2.25305226 0.140768242,2.34537567 L8.00375095,10.6929557 L8.00375095,19.509501 C8.00767905,19.6842195 8.10249634,19.8442237 8.25386571,19.9315696 L13.2561609,22.9329467 C13.4092217,23.0213397 13.5975658,23.022406 13.7516177,22.9357519 C13.9056696,22.8490977 14.0025631,22.6875851 14.0065052,22.5108781 L14.0065052,10.6929557 L21.791327,2.42353654 C21.7966522,2.41844159 21.8018642,2.4132296 21.8069592,2.40790436 L21.8694879,2.34537567 C21.8928913,2.32147791 21.913839,2.29529326 21.9320166,2.26721481 C21.9428937,2.2572592 21.9533253,2.24682757 21.9632809,2.23595047 C21.9930161,2.17225787 22.0089954,2.10301401 22.0101774,2.03273223 C22.0105031,2.02231332 22.0105031,2.01188679 22.0101774,2.00146788 C22.0122158,1.97545413 22.0122158,1.94932077 22.0101774,1.92330702 L22.0101774,0.500779332 C22.0101498,0.224521641 21.7862056,0.000577437364 21.5099479,0.000549815738 L0.500308207,0.000549815738 C0.484684629,-0.000183271913 0.469035267,-0.000183271913 0.453411689,0.000549815738 C0.437788112,-0.000183271913 0.42213875,-0.000183271913 0.406515172,0.000549815738 L0.406515172,0.000549815738 Z M2,1.5 L20.25,1.5 L20.25,2.22222222 L13.2066406,9.5 L9.04335937,9.5 L2,2.22222222 L2,1.5 L2,1.5 Z M9.25,11.0055992 L12.75,11.0055992 L12.75,21.1555988 L9.25,18.8718489 L9.25,11.0055992 L9.25,11.0055992 Z"></path>
</svg>