<svg width="100%" height="100%" viewBox="0 0 61 65">
    <path d="M1128.95111,58.4793165 C1117.10096,58.4793165 1107.49462,48.3633774 1107.49462,35.864842 C1107.49462,23.3663066 1117.10096,13.2301761 1128.95111,13.2301761 C1140.80126,13.2301761 1150.40949,23.3663066 1150.40949,35.864842 C1150.40949,48.3633774 1140.80126,58.4793165 1128.95111,58.4793165 L1128.95111,58.4793165 Z M1163.29205,70.1903836 L1147.73237,53.7746981 C1151.80551,49.0296968 1154.3093,42.7703333 1154.3093,35.864842 C1154.3093,21.0846677 1142.95652,9.11111111 1128.95111,9.11111111 C1114.9457,9.11111111 1103.59292,21.0846677 1103.59292,35.864842 C1103.59292,50.6248249 1114.9457,62.5983814 1128.95111,62.5983814 C1135.00241,62.5983814 1140.55258,60.3571255 1144.91207,56.6216989 L1160.53392,73.0979589 C1161.29693,73.9056187 1162.53093,73.9056187 1163.29205,73.0979589 C1164.05506,72.3104905 1164.05506,70.9980434 1163.29205,70.1903836 L1163.29205,70.1903836 Z" id="Fill-19"></path>
</svg>